<?xml version="1.0" encoding="utf-8"?>
<svg xmlns="http://www.w3.org/2000/svg" xmlns:xlink="http://www.w3.org/1999/xlink" version= "1.1" width="124px" height="50px" viewBox="474 1150 124 50">
<rect x="474" y="1150" width="124" height="50" fill="rgb(255,255,255)"/>
<g id="layer1">
<g>
<g style="fill:rgb(79,171,255); fill-opacity:1.0; stroke-linejoin: miter">
<path d="M501.1816,1154.3524L501.1816,1154.3524Q501.1816,1154.3525,501.1816,1154.3524"/>
</g>
<g style="fill:rgb(79,171,255); fill-opacity:1.0; stroke-linejoin: miter">
<path d="M488.93576,1154.3446L488.93576,1154.3446Q488.93576,1154.3447,488.93576,1154.3446"/>
</g>
<g style="fill:rgb(79,171,255); fill-opacity:1.0; stroke-linejoin: miter">
<path d="M501.33633,1154.7023L501.33905,1155.5317Q501.36404,1160.4082,501.25256,1160.8656Q503.4482,1161.768,506.23618,1166.0304Q507.84567,1168.7598,507.53537,1171.6959Q507.05804,1176.2386,504.47562,1179.2231Q501.56052,1182.0934,497.4111,1183.089L497.9532,1187.9156Q498.1629,1188.1349,503.98242,1183.8702Q506.56467,1181.9534,508.5398,1180.0094Q509.6406,1179.0135,510.5308,1177.2289Q510.9229,1176.4608,510.93793,1174.9589Q510.94684,1174.7421,510.83282,1173.7096L510.90677,1167.9755L509.24167,1162.7933L501.33633,1154.7023"/>
</g>
<g style="fill:rgb(79,171,255); fill-opacity:1.0; stroke-linejoin: miter">
<path d="M488.78058,1154.6942L488.7768,1155.5237Q488.74557,1160.4001,488.85648,1160.8577Q486.65967,1161.7572,483.86627,1166.0161Q482.25327,1168.7434,482.5598,1171.6799Q483.03134,1176.2233,485.60995,1179.211Q488.5214,1182.085,492.66953,1183.0858L492.12128,1187.9119Q491.9113,1188.1309,486.0972,1183.8588Q483.51743,1181.9386,481.54477,1179.9922Q480.44525,1178.9949,479.5573,1177.2091Q479.1662,1176.4406,479.15308,1174.9386Q479.14447,1174.7218,479.25977,1173.6895L479.19318,1167.9552L480.8649,1162.7753L488.78058,1154.6942"/>
</g>
<g style="fill:rgb(79,171,255); fill-opacity:1.0; stroke-linejoin: miter">
<path d="M498.3547,1153.2731L497.0772,1152.7866L496.06293,1152.2834L495.06198,1152.2456L495.06555,1155.4618Q495.8613,1155.824,496.09576,1156.1713Q496.39575,1156.5575,496.46906,1157.4214Q496.51764,1157.9606,496.52283,1158.7345Q496.533,1159.0784,496.50357,1161.2552Q496.50104,1161.5886,496.52432,1162.7793Q496.62704,1167.4357,496.72006,1169.5037Q496.73825,1169.7178,496.61755,1169.922Q496.48074,1170.0884,496.15494,1170.3667Q495.38275,1171.0189,495.19156,1171.1066Q495.09326,1171.1549,495.07394,1171.1254Q495.061,1171.1494,495.04797,1170.9358L495.04562,1173.164L497.1886,1173.2003L498.77527,1172.5708L499.40747,1165.7264L499.89355,1158.2922L498.3547,1153.2731"/>
</g>
<g style="fill:rgb(79,171,255); fill-opacity:1.0; stroke-linejoin: miter">
<path d="M491.76404,1153.2689L493.04214,1152.784L494.05707,1152.2822L495.05807,1152.2456L495.05038,1155.4618Q494.25418,1155.823,494.0193,1156.1699Q493.71878,1156.5558,493.64438,1157.4196Q493.59512,1157.9587,493.58893,1158.7327Q493.57834,1159.0765,493.60498,1161.2534Q493.6071,1161.5868,493.58228,1162.7775Q493.4736,1167.4337,493.37793,1169.5016Q493.35947,1169.7156,493.47992,1169.92Q493.61652,1170.0865,493.94196,1170.3654Q494.71332,1171.0186,494.9044,1171.1064Q495.00262,1171.1549,495.02197,1171.1254Q495.03488,1171.1494,495.0482,1170.9358L495.0477,1173.164L492.90466,1173.1976L491.31882,1172.566L490.69534,1165.721L490.21878,1158.286L491.76404,1153.2689"/>
</g>
<g style="fill:rgb(79,171,255); fill-opacity:1.0; stroke-linejoin: miter">
</g>
<g style="fill:rgb(79,171,255); fill-opacity:1.0; stroke-linejoin: miter">
</g>
<g style="fill:rgb(79,171,255); fill-opacity:1.0; stroke-linejoin: miter">
<path d="M494.99695,1155.4623L494.99695,1155.4624L495.09805,1155.461Q495.09332,1155.4097,495.09735,1155.3817L495.13113,1154.9835L495.10904,1154.8407L495.1932,1154.0541L495.07385,1152.2499Q495.053,1152.2908,495.05273,1152.281Q495.04767,1152.2867,495.0873,1152.154Q495.09262,1152.1345,495.09113,1152.1335Q495.09222,1152.114,494.95172,1152.48Q494.82114,1152.8201,494.5002,1153.669L494.9722,1155.2828L494.99695,1155.4623"/>
</g>
<g style="fill:rgb(79,171,255); fill-opacity:1.0; stroke-linejoin: miter">
<path d="M495.11786,1171.2092L495.11786,1171.2092L495.03873,1171.1482Q495.01437,1171.179,494.98996,1171.2096Q494.9685,1171.2657,494.94702,1171.3219L495.11786,1171.2092"/>
</g>
<g style="fill:rgb(79,171,255); fill-opacity:1.0; stroke-linejoin: miter">
<path d="M495.201,1171.2621L495.201,1171.2621L494.9564,1171.21L494.77805,1171.5879L494.73962,1171.9233L494.7987,1172.1642L494.94675,1172.9933L495.5146,1173.103L495.7454,1172.8975L495.201,1171.2621"/>
</g>
<g style="fill:rgb(20,90,176); fill-opacity:1.0; stroke-linejoin: miter">
<path d="M501.27783,1154.3862L501.3255,1157.579Q507.392,1161.9662,508.38715,1164.5071Q510.5909,1168.909,509.75592,1174.2583Q509.4267,1176.2058,508.5194,1178.0236Q507.8118,1179.6097,505.7572,1181.8009Q502.90427,1184.7699,497.6698,1185.6101L497.76114,1187.2412Q495.8057,1188.8175,495.02844,1188.8271L495.05246,1195.1344L497.09955,1194.7617L498.31302,1192.467Q498.13678,1192.7405,505.1139,1185.6345L510.34525,1179.1902Q511.82977,1176.4519,512.3577,1175.0112Q512.89856,1173.4459,512.83484,1171.948Q512.8136,1168.5396,512.1915,1166.5027Q511.38693,1163.8427,509.82922,1161.5913Q508.142,1159.0422,505.9774,1157.1519Q504.71484,1156.1027,503.41556,1155.3524L501.24313,1154.1572L501.27783,1154.3862"/>
</g>
<g style="fill:rgb(20,90,176); fill-opacity:1.0; stroke-linejoin: miter">
<path d="M488.83948,1154.3783L488.78775,1157.5709Q482.71564,1161.9504,481.71722,1164.49Q479.50787,1168.8892,480.336,1174.2395Q480.66272,1176.1875,481.5677,1178.0063Q482.2733,1179.5935,484.32507,1181.7871Q487.17422,1184.7598,492.40762,1185.6067L492.31418,1187.2377Q494.2676,1188.8164,495.04486,1188.827L495.0128,1195.1343L492.96616,1194.759L491.7556,1192.4628Q491.93152,1192.7365,484.9635,1185.6216L479.74036,1179.1707Q478.25934,1176.4304,477.73322,1174.9891Q477.1944,1173.4231,477.26,1171.9253Q477.28564,1168.5168,477.91028,1166.4808Q478.71832,1163.8218,480.2789,1161.5724Q481.96936,1159.0255,484.13638,1157.138Q485.40027,1156.0903,486.70053,1155.3418L488.87448,1154.1493L488.83948,1154.3783"/>
</g>
<g style="fill:rgb(20,90,176); fill-opacity:1.0; stroke-linejoin: miter">
<path d="M495.92764,1173.1661L496.1081,1173.1407Q497.3696,1172.962,497.66934,1172.7162Q497.86472,1172.6254,498.08527,1172.2476Q498.18137,1172.087,498.27972,1171.6235L498.34756,1171.2147Q498.5229,1167.3094,498.604,1165.372Q498.82065,1160.1962,498.8026,1159.2139Q498.83206,1156.7018,498.2815,1155.4222Q497.67596,1153.8999,496.0579,1152.2852Q498.9524,1153.1255,499.66904,1154.2109Q499.7366,1154.4283,499.79532,1155.1472Q499.8541,1155.8662,499.8983,1157.4215Q499.9932,1161.0359,499.97238,1165.9725Q499.93417,1169.8093,499.8667,1170.6152Q499.7549,1172.5045,499.54733,1172.8618Q499.43237,1173.2104,498.88177,1173.19Q498.52344,1173.2866,495.92764,1173.1661"/>
</g>
<g style="fill:rgb(20,90,176); fill-opacity:1.0; stroke-linejoin: miter">
<path d="M494.16568,1173.165L493.98526,1173.1394Q492.72397,1172.9591,492.42456,1172.7129Q492.22928,1172.6218,492.00922,1172.2437Q491.91333,1172.083,491.81555,1171.6194L491.74823,1171.2106Q491.5779,1167.305,491.49927,1165.3674Q491.28925,1160.1914,491.30853,1159.2091Q491.2823,1156.697,491.8345,1155.4181Q492.442,1153.8966,494.0621,1152.2839Q491.16653,1153.1205,490.44852,1154.2051Q490.38068,1154.4224,490.321,1155.1411Q490.26132,1155.8601,490.21515,1157.4153Q490.11563,1161.0295,490.13013,1165.9663Q490.16342,1169.8031,490.2299,1170.6091Q490.33923,1172.4985,490.5464,1172.8561Q490.6609,1173.2048,491.21152,1173.185Q491.56973,1173.2822,494.16568,1173.165"/>
</g>
<g style="fill:rgb(20,90,176); fill-opacity:1.0; stroke-linejoin: miter">
<path d="M496.067,1191.2522L496.067,1191.2522Q496.067,1191.2522,496.067,1191.2522"/>
</g>
<g style="fill:rgb(20,90,176); fill-opacity:1.0; stroke-linejoin: miter">
<path d="M495.5349,1189.5614L493.6762,1191.0472L493.84644,1193.8257L494.61935,1195.2412L495.6519,1195.7053L498.00952,1192.9182L495.5349,1189.5614"/>
</g>
<g style="fill:rgb(10,33,106); fill-opacity:1.0; stroke-linejoin: miter">
<path d="M495.06433,1177.3547L497.62732,1177.301Q497.46042,1178.1056,497.19208,1178.422Q496.9567,1178.7537,496.1162,1179.2458L496.15024,1186.293Q495.55457,1187.0358,495.03473,1187.0133L495.06433,1177.3547"/>
</g>
<g style="fill:rgb(10,33,106); fill-opacity:1.0; stroke-linejoin: miter">
<path d="M495.02362,1177.3547L492.46072,1177.2977Q492.6266,1178.1025,492.89453,1178.4193Q493.1295,1178.7512,493.96933,1179.2445L493.9263,1186.2915Q494.52103,1187.035,495.0409,1187.0132L495.02362,1177.3547"/>
</g>
<g style="fill:rgb(10,33,106); fill-opacity:1.0; stroke-linejoin: miter">
<path d="M495.04483,1176.2146L495.04483,1176.2146L500.19562,1176.2295Q500.13712,1175.427,499.98138,1175.139Q499.84824,1174.8308,499.32907,1174.441L495.0447,1174.4321L495.04483,1176.2146"/>
</g>
<g style="fill:rgb(10,33,106); fill-opacity:1.0; stroke-linejoin: miter">
<path d="M495.0446,1176.2146L495.0446,1176.2146L489.89377,1176.2229Q489.9533,1175.4205,490.1094,1175.1327Q490.24295,1174.8247,490.7626,1174.4355L495.047,1174.4321L495.0446,1176.2146"/>
</g>
<g style="fill:rgb(10,33,106); fill-opacity:1.0; stroke-linejoin: miter">
<path d="M495.10455,1197.7968L495.10455,1197.7969Q495.10455,1197.7969,495.10455,1197.7968"/>
</g>
<g style="fill:rgb(10,33,106); fill-opacity:1.0; stroke-linejoin: miter">
<path d="M494.95728,1197.7966L494.95728,1197.7968Q494.95728,1197.7968,494.95728,1197.7966"/>
</g>
<g style="fill:rgb(10,33,106); fill-opacity:1.0; stroke-linejoin: miter">
<path d="M495.03082,1197.8804L495.09662,1197.8185Q495.42383,1197.5195,496.14493,1196.7142L500.74258,1191.5011L505.06183,1186.8138Q506.72104,1184.9575,508.4949,1182.6256Q510.2681,1180.2928,511.2065,1178.4531Q511.95917,1177.0541,512.4951,1174.6337Q511.0776,1178.6069,507.3787,1182.49Q497.74966,1192.6113,495.03326,1193.9353L495.03082,1197.8804"/>
</g>
<g style="fill:rgb(10,33,106); fill-opacity:1.0; stroke-linejoin: miter">
<path d="M495.0309,1197.8802L494.96518,1197.8184Q494.63837,1197.5189,493.91827,1196.7128L489.3273,1191.4938L485.01404,1186.8009Q483.3572,1184.9425,481.58633,1182.6083Q479.8161,1180.2734,478.88007,1178.4325Q478.12915,1177.0325,477.5963,1174.6113Q479.00873,1178.5864,482.7027,1182.4741Q492.3188,1192.6078,495.0335,1193.9352L495.0309,1197.8802"/>
</g>
<g style="fill:rgb(10,33,106); fill-opacity:1.0; stroke-linejoin: miter">
<path d="M495.50522,1193.7781L495.49417,1193.7941Q495.43695,1193.9021,495.2766,1193.9312Q495.14734,1193.9547,494.72638,1193.9138L494.43176,1194.9744L494.69366,1195.6661L494.8111,1197.4022L495.0317,1197.877L495.69907,1195.177L496.22653,1194.4993L495.2735,1194.4468L495.50522,1193.7781"/>
</g>
<g style="fill:rgb(10,33,106); fill-opacity:1.0; stroke-linejoin: miter">
<path d="M496.1716,1175.137L496.1716,1175.137Q496.1716,1175.1371,496.1716,1175.137"/>
</g>
<g style="fill:rgb(10,33,106); fill-opacity:1.0; stroke-linejoin: miter">
<path d="M494.61798,1175.7754L494.61798,1175.7754L494.98853,1176.151Q494.96982,1176.2072,495.0099,1176.2142Q495.03964,1176.2281,495.31744,1176.1283L495.6195,1175.8625L495.56012,1174.6799L495.03003,1174.5948L494.68735,1174.7684L494.61798,1175.7754"/>
</g>
<g style="fill:rgb(10,33,106); fill-opacity:1.0; stroke-linejoin: miter">
<path d="M495.144,1177.3689L495.06595,1177.3547Q495.0056,1177.3339,494.93552,1177.3945L494.9322,1177.4445L494.91055,1177.5402L494.9322,1177.5739L494.70197,1178.8379L494.78906,1179.0768L494.64038,1180.683L494.8664,1180.9579L494.51898,1183.2104L494.6403,1183.576L494.74677,1185.4471L494.71967,1186.2842L495.0228,1186.615L495.4061,1186.1711L495.6423,1185.0352L495.144,1177.3689"/>
</g>
<g style="fill:rgb(10,33,106); fill-opacity:1.0; stroke-linejoin: miter">
</g>
</g>
<g>
<g style="fill:rgb(10,33,106); fill-opacity:1.0; stroke-linejoin: miter">
<path d="M527.9304,1171.1244Q528.14624,1171.7407,528.3082,1172.1963Q528.4433,1172.652,528.5783,1173.0541Q528.63245,1173.2686,528.7134,1173.4829Q528.7943,1173.6705,528.8484,1173.885Q528.9025,1174.0995,529.06445,1174.5282Q529.22626,1174.9303,529.4691,1175.5735L525.7711,1177.2179L527.9302,1171.1246 Z M526.2609,1165.5687Q526.2114,1165.6068,526.1747,1165.6561Q526.0141,1165.8442,525.8806,1166.1395Q525.74725,1166.4617,525.37396,1167.4818Q525.0275,1168.502,524.5211,1169.9515Q524.01465,1171.4011,523.4016,1173.1729Q522.81537,1174.9176,522.20245,1176.7162Q521.6162,1178.4878,521.05664,1180.179Q520.4971,1181.8433,520.044,1183.1586Q519.6177,1184.4471,519.3512,1185.2523Q519.0847,1186.0309,519.0848,1186.0577Q519.0856,1186.4332,519.3812,1186.674Q519.64996,1186.9148,519.9718,1186.9141L521.82263,1186.91Q522.21497,1186.909,522.3768,1186.7848Q522.4141,1186.7561,522.4392,1186.7208Q522.5729,1186.5328,522.7063,1186.2106L524.1724,1182.0765L530.7645,1179.1382L533.22107,1186.1874Q533.35583,1186.482,533.5173,1186.6963Q533.6518,1186.8838,534.08093,1186.8828L536.01227,1186.8785Q536.3842,1186.8777,536.5946,1186.7161Q536.86975,1186.5048,536.8687,1186.0183Q536.8685,1185.9379,536.8684,1185.8842Q536.8683,1185.8306,536.8412,1185.6964L529.931,1166.1306Q529.79626,1165.8627,529.6349,1165.6484Q529.50024,1165.4341,529.0979,1165.4349L526.7374,1165.4402Q526.42737,1165.4409,526.2609,1165.5687 Z M537.78784,1165.5719Q537.5213,1165.7766,537.52234,1166.2479Q537.5227,1166.4088,537.54974,1166.516Q537.55,1166.6233,537.63074,1166.7573L544.73456,1176.854L544.7544,1185.8131Q544.75525,1186.2155,544.89014,1186.537Q544.9981,1186.8586,545.61505,1186.8573L547.439,1186.8533Q547.89594,1186.8522,548.091,1186.7024Q548.18225,1186.6323,548.2162,1186.5297Q548.3228,1186.2075,548.3219,1185.8052L548.3022,1176.8998L555.174,1167.0403L555.20074,1167.0134Q555.2007,1166.9982,555.20935,1166.9916Q555.2159,1166.9866,555.22754,1166.9866Q555.22754,1166.9866,555.2275,1166.9597Q555.3345,1166.8253,555.44135,1166.6373Q555.5482,1166.4493,555.5477,1166.2347Q555.54584,1165.3765,554.6875,1165.3783L552.2734,1165.3837Q551.9504,1165.3844,551.722,1165.5598Q551.6279,1165.6321,551.5499,1165.734L551.6026,1165.681L551.603,1165.6808Q551.14813,1166.2454,549.89215,1168.1249Q548.63556,1169.9785,546.55054,1173.2289L541.51807,1165.8098Q541.2221,1165.4081,540.73926,1165.4092L538.352,1165.4144Q537.9917,1165.4153,537.78784,1165.5719 Z M562.8502,1169.72Q563.4803,1169.2361,564.2713,1168.8978Q565.31647,1168.4663,566.4967,1168.4637Q567.67694,1168.461,568.724,1168.888Q569.77106,1169.3148,570.5506,1170.0641Q571.33014,1170.8135,571.7883,1171.8049Q572.2465,1172.7964,572.249,1173.923L572.25836,1178.1343Q572.26086,1179.2609,571.80707,1180.2543Q571.3533,1181.2478,570.577,1182.0006Q570.3469,1182.2238,570.09314,1182.4187Q569.49097,1182.8812,568.7557,1183.1848Q567.7105,1183.6163,566.5303,1183.6189Q565.35004,1183.6216,564.2761,1183.1947Q563.22906,1182.768,562.4495,1182.0186Q561.67,1181.2693,561.2118,1180.2777Q560.7536,1179.2863,560.7511,1178.1598L560.74176,1173.9485Q560.73926,1172.8219,561.1931,1171.8284Q561.64685,1170.835,562.4231,1170.0822Q562.6265,1169.8918,562.8502,1169.72 Z M560.58234,1167.0669Q560.21075,1167.3523,559.8695,1167.6737Q558.61145,1168.8567,557.864,1170.4946Q557.1165,1172.1056,557.1206,1173.9564L557.12994,1178.1677Q557.13403,1180.0186,557.88873,1181.6531Q558.6165,1183.261,559.90674,1184.4652Q561.1969,1185.6693,562.91516,1186.3629Q564.60657,1187.0566,566.53784,1187.0524Q568.4692,1187.0481,570.1843,1186.3468Q571.41296,1185.8365,572.428,1185.0569Q572.8077,1184.7651,573.1575,1184.4358Q574.4155,1183.226,575.16296,1181.588Q575.8836,1179.977,575.8795,1178.1262L575.8702,1173.9149Q575.8661,1172.0641,575.13824,1170.4294Q574.41046,1168.8217,573.12024,1167.6174Q571.85693,1166.4401,570.1387,1165.7465Q568.44727,1165.0527,566.516,1165.057Q564.5847,1165.0613,562.8695,1165.7626Q561.60986,1166.2775,560.58234,1167.0669 Z M580.9956,1166.4066Q580.9186,1166.4657,580.843,1166.5275Q579.98615,1167.2,579.39813,1168.14Q578.81006,1169.0802,578.598,1170.2073L578.62415,1170.181L578.6247,1170.1805Q578.4918,1170.7172,578.466,1171.1732Q578.467,1171.6023,578.4679,1172.0315L578.46875,1172.4071Q578.4717,1173.7482,579.1175,1174.6588Q579.73645,1175.5695,580.75714,1176.1841Q581.7777,1176.772,583.06604,1177.1447Q584.32764,1177.5175,585.6158,1177.8096Q587.06506,1178.1552,588.21906,1178.4208Q589.37305,1178.6864,589.9374,1179.1681Q590.0987,1179.3286,590.2064,1179.543Q590.2874,1179.7573,590.34155,1179.9718Q590.3688,1180.1864,590.34247,1180.401Q590.3429,1180.5887,590.3432,1180.7229Q590.3435,1180.857,590.31696,1180.9912Q590.31726,1181.1254,590.2907,1181.2595Q590.12354,1182.2277,589.34436,1182.8262Q589.25977,1182.8912,589.16785,1182.9519Q588.25726,1183.5708,587.0502,1183.5735L585.0116,1183.578Q583.9655,1183.5803,583.13257,1182.9384Q582.3264,1182.2964,582.1096,1181.3044Q582.0822,1181.0363,582.055,1180.8485Q582.0546,1180.6876,582.0544,1180.5803Q582.0537,1180.2584,582.05334,1180.1243Q582.0531,1179.9902,581.97205,1179.7222Q581.8097,1179.0787,581.1659,1179.0802L579.3419,1179.0842Q578.9208,1179.0851,578.7249,1179.2356Q578.6339,1179.3055,578.59155,1179.4077Q578.485,1179.7299,578.48584,1180.1322L578.48596,1180.1322Q578.4884,1180.5614,578.5146,1180.9905Q578.51556,1181.4197,578.67834,1182.2509Q578.8412,1183.1356,579.4332,1183.9927Q580.2947,1185.3856,581.7718,1186.2139Q583.2489,1187.0153,585.0192,1187.0114L587.0578,1187.0068Q588.5063,1187.0037,589.7661,1186.6254Q590.8108,1186.3276,591.62366,1185.7032Q591.7703,1185.5905,591.9094,1185.4672Q592.36456,1185.0638,592.7387,1184.446Q593.1129,1183.8551,593.3796,1183.1302Q593.6463,1182.4323,593.8055,1181.654Q593.93787,1180.8759,593.93616,1180.098Q593.9331,1178.73,593.39453,1177.7655Q592.88275,1176.801,592.05,1176.2396Q591.64703,1175.9723,591.1637,1175.7319Q590.70715,1175.5183,590.1703,1175.3318Q589.6603,1175.1451,588.80133,1174.9056Q587.9425,1174.6929,586.73474,1174.3468L583.64813,1173.4954Q583.0308,1173.3358,582.49316,1172.8005Q581.98236,1172.292,582.00806,1171.7555Q582.00684,1171.2219,582.05914,1170.874L582.0597,1170.8735L582.05975,1170.897Q582.1659,1170.3871,582.46,1169.9573Q582.7273,1169.5275,583.12897,1169.2047Q583.1892,1169.1528,583.2522,1169.1045Q583.5813,1168.8517,583.9862,1168.6932Q584.4686,1168.5311,584.9783,1168.53L587.01685,1168.5255Q588.3044,1168.5227,589.0034,1169.2454Q589.7024,1169.9413,589.7598,1171.6578Q589.78735,1171.9796,590.02936,1172.2473Q590.2445,1172.515,590.62006,1172.5143L592.3904,1172.5104Q592.79944,1172.5094,592.98413,1172.3676Q593.078,1172.2954,593.11395,1172.1869Q593.2205,1171.8647,593.24646,1171.4623Q593.29663,1169.9064,592.78406,1168.5933Q592.2716,1167.3069,591.35803,1166.5846Q590.4444,1165.8624,589.3169,1165.4357Q588.2162,1165.0358,587.00916,1165.0385L584.9706,1165.043Q583.81714,1165.0455,582.7451,1165.4503Q581.792,1165.7948,580.9956,1166.4066 Z"/>
</g>
</g>
</g>
<g id="layer2">
</g>
</svg>