<?xml version="1.0" encoding="utf-8"?>
<svg xmlns="http://www.w3.org/2000/svg" xmlns:xlink="http://www.w3.org/1999/xlink" version= "1.1" width="46px" height="46px" viewBox="495 1159 46 46">
<rect x="495" y="1159" width="46" height="46" fill="rgb(255,255,255)"/>
<g id="layer1">
<g>
<g style="fill:rgb(79,171,255); fill-opacity:1.0; stroke-linejoin: miter">
<path d="M523.72217,1161.5782L523.72217,1161.5792 Z"/>
</g>
<g style="fill:rgb(79,171,255); fill-opacity:1.0; stroke-linejoin: miter">
<path d="M511.4762,1161.5706L511.4762,1161.5715 Z"/>
</g>
<g style="fill:rgb(79,171,255); fill-opacity:1.0; stroke-linejoin: miter">
<path d="M523.8769,1161.9281L523.8769,1161.9291C523.88257,1163.593,523.8883,1165.2582,523.8744,1166.2854C523.86035,1167.3126,523.8268,1167.702,523.7931,1168.0914C524.3777,1168.3604,524.96234,1168.6292,526.13684,1169.8337C527.31134,1171.0383,529.07556,1173.1786,529.75775,1175.4634C530.43994,1177.7482,530.0404,1180.1775,529.4082,1182.1349C528.776,1184.0923,527.91125,1185.5778,526.7266,1186.748C525.542,1187.9183,524.0377,1188.7737,522.8553,1189.3157C521.67285,1189.8577,520.81226,1190.0862,519.95166,1190.3148L520.4938,1195.1415C520.50916,1195.1481,520.52466,1195.1548,520.5491,1195.1548C520.6763,1195.1548,521.04663,1194.9751,522.92596,1193.681C525.1664,1192.1383,529.55145,1189.0122,531.65015,1186.6241C533.74884,1184.2361,533.56116,1182.5857,533.3734,1180.9354L533.4473,1175.2013L531.7822,1170.0192 Z"/>
</g>
<g style="fill:rgb(79,171,255); fill-opacity:1.0; stroke-linejoin: miter">
<path d="M511.32098,1161.9202L511.32098,1161.9211C511.31317,1163.5851,511.3053,1165.2502,511.31793,1166.2775C511.33063,1167.3047,511.3637,1167.6942,511.3969,1168.0836C510.812,1168.3518,510.227,1168.6199,509.05096,1169.823C507.87488,1171.026,506.10797,1173.1641,505.42285,1175.448C504.73773,1177.7319,505.13416,1180.1617,505.76385,1182.1198C506.39355,1184.078,507.2564,1185.5646,508.4395,1186.7363C509.62268,1187.9082,511.12585,1188.7655,512.3076,1189.309C513.4893,1189.8524,514.3497,1190.082,515.20996,1190.3118L514.6617,1195.1378C514.6463,1195.1444,514.63074,1195.151,514.6063,1195.151C514.4791,1195.1509,514.109,1194.9707,512.2313,1193.6742C509.99292,1192.1287,505.61182,1188.997,503.51617,1186.6062C501.42053,1184.2155,501.61035,1182.5653,501.80017,1180.9154L501.73358,1175.1812L503.40533,1170.0011 Z"/>
</g>
<g style="fill:rgb(79,171,255); fill-opacity:1.0; stroke-linejoin: miter">
<path d="M520.89526,1160.4989L520.89526,1160.4999L519.6178,1160.0125L518.82886,1159.6492C518.7603,1159.6055,518.6918,1159.5616,518.65393,1159.536C518.6161,1159.5104,518.60876,1159.5029,518.49927,1159.4968C518.3898,1159.4907,518.17816,1159.4852,518.01166,1159.4811C517.84515,1159.4769,517.7239,1159.4741,517.60254,1159.4714C517.6007,1159.5557,517.5989,1159.6398,517.5995,1160.1758C517.60004,1160.7118,517.603,1161.6997,517.6061,1162.6876C517.9967,1162.876,518.3872,1163.0645,518.63635,1163.3971C518.88544,1163.7297,518.9929,1164.2064,519.0375,1165.0316C519.08203,1165.8568,519.0636,1167.0305,519.0452,1168.2043C519.0431,1168.5504,519.04095,1168.8965,519.0719,1170.3447C519.1029,1171.793,519.167,1174.3434,519.2207,1175.6458C519.27454,1176.9481,519.3179,1177.0024,519.0478,1177.2709C518.7777,1177.5393,518.194,1178.0217,517.9004,1178.227C517.7561,1178.3279,517.6818,1178.3619,517.6432,1178.3619C517.6032,1178.3619,517.60144,1178.3256,517.5996,1178.2891C517.5967,1178.2637,517.5938,1178.2384,517.5919,1178.217C517.5901,1178.1957,517.58936,1178.1787,517.5885,1178.1616L517.5862,1180.3898L519.7291,1180.4261L521.3158,1179.7966L521.948,1172.9523L522.4341,1165.5181 Z"/>
</g>
<g style="fill:rgb(79,171,255); fill-opacity:1.0; stroke-linejoin: miter">
<path d="M514.30444,1160.4948L514.30444,1160.4957L515.5825,1160.01L516.37195,1159.6477C516.44055,1159.6041,516.50916,1159.5604,516.547,1159.5348C516.5849,1159.5092,516.5922,1159.5017,516.7017,1159.4958C516.8112,1159.4899,517.0228,1159.4846,517.18933,1159.4807C517.3559,1159.4767,517.4772,1159.4741,517.5985,1159.4716C517.6002,1159.5558,517.6019,1159.6399,517.60065,1160.1759C517.5994,1160.7119,517.59515,1161.6998,517.5908,1162.6877C517.19995,1162.8756,516.8092,1163.0636,516.55963,1163.3959C516.3101,1163.7283,516.2021,1164.2047,516.15643,1165.0299C516.11084,1165.855,516.12775,1167.0288,516.14465,1168.2026C516.14636,1168.5487,516.148,1168.8948,516.11523,1170.343C516.0824,1171.7911,516.015,1174.3416,515.95966,1175.6438C515.9042,1176.946,515.8608,1177.0004,516.1305,1177.2692C516.4002,1177.538,516.98334,1178.0211,517.2767,1178.2268C517.42084,1178.3278,517.49506,1178.3619,517.5337,1178.362C517.57367,1178.362,517.5755,1178.3257,517.5774,1178.2892C517.5803,1178.2638,517.58325,1178.2385,517.58514,1178.2172C517.58704,1178.1958,517.58777,1178.1788,517.5886,1178.1617L517.58813,1180.3899L515.4451,1180.4236L513.85925,1179.792L513.2358,1172.9468L512.7592,1165.512 Z"/>
</g>
<g style="fill:rgb(79,171,255); fill-opacity:1.0; stroke-linejoin: miter">
</g>
<g style="fill:rgb(79,171,255); fill-opacity:1.0; stroke-linejoin: miter">
</g>
<g style="fill:rgb(79,171,255); fill-opacity:1.0; stroke-linejoin: miter">
<path d="M517.5375,1162.6881L517.5375,1162.6891L517.6386,1162.6869L517.6361,1162.6414L517.63794,1162.6075L517.6717,1162.2094L517.6496,1162.0665L517.73376,1161.2799L517.6144,1159.4757C517.6057,1159.4923,517.5969,1159.509,517.5942,1159.509C517.59204,1159.509,517.59344,1159.499,517.6012,1159.4714C517.61206,1159.4327,517.6354,1159.3593,517.63165,1159.3593C517.6293,1159.3593,517.6161,1159.3885,517.58203,1159.4745C517.49414,1159.6963,517.26746,1160.2955,517.0408,1160.8948L517.51276,1162.5087 Z"/>
</g>
<g style="fill:rgb(79,171,255); fill-opacity:1.0; stroke-linejoin: miter">
<path d="M517.65845,1178.435L517.65845,1178.436L517.5793,1178.374L517.5305,1178.4354L517.48755,1178.5477 Z"/>
</g>
<g style="fill:rgb(79,171,255); fill-opacity:1.0; stroke-linejoin: miter">
<path d="M517.7416,1178.4879L517.7416,1178.4889L517.49695,1178.4358L517.3186,1178.8137L517.28015,1179.1492L517.33923,1179.39L517.4873,1180.2191L518.0552,1180.3289L518.28595,1180.1233 Z"/>
</g>
<g style="fill:rgb(20,90,176); fill-opacity:1.0; stroke-linejoin: miter">
<path d="M523.81836,1161.612L523.81836,1161.613L523.8661,1164.8048C526.1416,1166.4907,528.4171,1168.1765,529.931,1170.1763C531.445,1172.176,532.1974,1174.4896,532.4442,1176.9938C532.69104,1179.4979,532.43225,1182.1927,531.34784,1184.6423C530.2634,1187.0919,528.3532,1189.2965,526.35925,1190.6212C524.3653,1191.9459,522.28784,1192.3909,520.2103,1192.8359L520.3017,1194.467C519.699,1194.9272,519.0962,1195.3873,518.64075,1195.6516C518.1853,1195.9159,517.8772,1195.9844,517.569,1196.053L517.593,1202.3604L519.64014,1201.9875L520.8536,1199.6929L522.4657,1198.1215L525.96216,1194.5729L527.6544,1192.8604L531.2023,1188.4447L532.88574,1186.416C533.63525,1184.9984,534.38464,1183.5808,534.8009,1182.5002C535.21716,1181.4197,535.3003,1180.6763,535.3834,1179.9327C535.36975,1178.4158,535.3561,1176.8989,535.0913,1175.3265C534.82654,1173.7542,534.31055,1172.1263,533.2551,1170.2539C532.1998,1168.3815,530.605,1166.2648,528.9365,1164.7455C527.26807,1163.2262,525.5259,1162.3047,523.7837,1161.383 Z"/>
</g>
<g style="fill:rgb(20,90,176); fill-opacity:1.0; stroke-linejoin: miter">
<path d="M511.37994,1161.6042L511.37994,1161.6052L511.32812,1164.7969C509.05048,1166.48,506.77277,1168.1628,505.2563,1170.1606C503.7398,1172.1584,502.98444,1174.4711,502.73444,1176.975C502.48438,1179.4788,502.73975,1182.1738,503.82104,1184.6248C504.90228,1187.0757,506.8097,1189.2827,508.80194,1190.61C510.79425,1191.9373,512.8711,1192.3849,514.94806,1192.8326L514.8546,1194.4636C515.4567,1194.9246,516.05896,1195.3854,516.51404,1195.6503C516.9691,1195.9152,517.27716,1195.984,517.5853,1196.053L517.5532,1202.3604L515.50653,1201.985L514.296,1199.6887L512.6859,1198.1152L509.19403,1194.5621L507.5039,1192.8475L503.96173,1188.4274L502.28082,1186.3965C501.53314,1184.9779,500.78558,1183.5593,500.37067,1182.4783C499.9558,1181.3973,499.87366,1180.6538,499.79144,1179.9102C499.80707,1178.3932,499.8227,1176.8763,500.08948,1175.3043C500.35626,1173.7323,500.87433,1172.1051,501.93213,1170.234C502.9898,1168.3629,504.58734,1166.2483,506.25775,1164.7311C507.92816,1163.214,509.6715,1162.2947,511.41492,1161.3752 Z"/>
</g>
<g style="fill:rgb(20,90,176); fill-opacity:1.0; stroke-linejoin: miter">
<path d="M518.4682,1180.392L518.4682,1180.393C519.19104,1180.2913,519.91394,1180.1906,520.3172,1179.8654C520.72046,1179.5402,520.8043,1178.9904,520.8881,1178.4406C521.0425,1174.991,521.1967,1171.5416,521.2826,1169.0685C521.36847,1166.5953,521.38586,1165.0988,521.1809,1163.938C520.97595,1162.7772,520.5485,1161.952,520.08105,1161.2701C519.6136,1160.5883,519.106,1160.0496,518.59845,1159.511C519.34595,1159.7532,520.0935,1159.9955,520.67236,1160.2719C521.2512,1160.5482,521.6614,1160.8588,522.07153,1161.1693C522.21155,1161.3254,522.3515,1161.4816,522.43884,1164.6473C522.5262,1167.8131,522.5609,1173.9894,522.44055,1177.1202C522.3202,1180.2511,522.0448,1180.3367,521.6963,1180.3855C521.3478,1180.4343,520.92615,1180.4463,520.50464,1180.4583 Z"/>
</g>
<g style="fill:rgb(20,90,176); fill-opacity:1.0; stroke-linejoin: miter">
<path d="M516.7061,1180.391L516.7061,1180.392C515.9834,1180.2893,515.2606,1180.1877,514.8578,1179.862C514.4549,1179.5363,514.37177,1178.9863,514.28864,1178.4365C514.13873,1174.9867,513.9889,1171.5371,513.9062,1169.0638C513.8234,1166.5907,513.808,1165.094,514.0144,1163.9336C514.2208,1162.7731,514.64935,1161.9484,515.1177,1161.2671C515.586,1160.5858,516.0943,1160.0477,516.60254,1159.5099C515.85474,1159.7511,515.1069,1159.9924,514.52765,1160.2681C513.9484,1160.5437,513.5379,1160.8536,513.1273,1161.1637C512.9871,1161.3197,512.847,1161.4756,512.75555,1164.6412C512.6642,1167.8069,512.6216,1173.9832,512.7379,1177.1141C512.8543,1180.2452,513.1296,1180.331,513.478,1180.3804C513.8265,1180.4297,514.24805,1180.4421,514.66956,1180.4547 Z"/>
</g>
<g style="fill:rgb(20,90,176); fill-opacity:1.0; stroke-linejoin: miter">
<path d="M518.60754,1198.478L518.60754,1198.479 Z"/>
</g>
<g style="fill:rgb(20,90,176); fill-opacity:1.0; stroke-linejoin: miter">
<path d="M518.07544,1196.7872L518.07544,1196.7882L516.2168,1198.2731L516.38696,1201.0515L517.1599,1202.467L518.19244,1202.9312L520.55005,1200.144 Z"/>
</g>
<g style="fill:rgb(10,33,106); fill-opacity:1.0; stroke-linejoin: miter">
<path d="M517.60486,1184.5806L517.60486,1184.5815L520.16785,1184.5269C520.0762,1184.9253,519.9845,1185.3236,519.73267,1185.6478C519.4808,1185.972,519.0687,1186.2219,518.65674,1186.4717L518.6908,1193.5188C518.49536,1193.7345,518.3,1193.9502,518.1141,1194.0703C517.92816,1194.1904,517.7517,1194.2148,517.5753,1194.2391 Z"/>
</g>
<g style="fill:rgb(10,33,106); fill-opacity:1.0; stroke-linejoin: miter">
<path d="M517.5641,1184.5806L517.5641,1184.5815L515.00116,1184.5236C515.09235,1184.9221,515.1835,1185.3206,515.4349,1185.6451C515.6864,1185.9696,516.0981,1186.2201,516.50977,1186.4703L516.46674,1193.5175C516.66187,1193.7334,516.857,1193.9493,517.0427,1194.0697C517.2285,1194.1901,517.4049,1194.2146,517.5813,1194.2391 Z"/>
</g>
<g style="fill:rgb(10,33,106); fill-opacity:1.0; stroke-linejoin: miter">
<path d="M517.5854,1183.4404L517.5854,1183.4414L522.7362,1183.4553C522.7013,1183.0591,522.6664,1182.663,522.522,1182.3649C522.3775,1182.0668,522.12354,1181.8668,521.8696,1181.6669L517.58527,1181.658 Z"/>
</g>
<g style="fill:rgb(10,33,106); fill-opacity:1.0; stroke-linejoin: miter">
<path d="M517.585,1183.4404L517.585,1183.4414L512.43414,1183.4487C512.4696,1183.0526,512.505,1182.6565,512.6498,1182.3585C512.7946,1182.0607,513.0489,1181.8611,513.30304,1181.6614L517.5874,1181.658 Z"/>
</g>
<g style="fill:rgb(10,33,106); fill-opacity:1.0; stroke-linejoin: miter">
<path d="M517.64514,1205.0226L517.64514,1205.0236 Z"/>
</g>
<g style="fill:rgb(10,33,106); fill-opacity:1.0; stroke-linejoin: miter">
<path d="M517.4977,1205.0226L517.4977,1205.0236 Z"/>
</g>
<g style="fill:rgb(10,33,106); fill-opacity:1.0; stroke-linejoin: miter">
<path d="M517.5714,1205.1062C517.83264,1204.8606,518.09393,1204.6151,519.1516,1203.415C520.20935,1202.215,522.0635,1200.0598,523.69507,1198.2736C525.3267,1196.4873,526.73596,1195.0701,528.42664,1193.0939C530.1173,1191.1177,532.08923,1188.5824,533.2377,1186.6168C534.386,1184.6512,534.7108,1183.2554,535.03564,1181.8595C534.41,1183.3573,533.7842,1184.855,532.42664,1186.7095C531.0691,1188.564,528.9795,1190.7759,526.782,1192.9965C524.5844,1195.217,522.2788,1197.446,520.7262,1198.8083C519.17346,1200.1707,518.37366,1200.6659,517.57385,1201.1611 Z"/>
</g>
<g style="fill:rgb(10,33,106); fill-opacity:1.0; stroke-linejoin: miter">
<path d="M517.5713,1205.1062C517.31036,1204.8604,517.0494,1204.6145,515.9932,1203.4131C514.9371,1202.2117,513.0857,1200.0541,511.45636,1198.2657C509.82697,1196.4774,508.41956,1195.0583,506.73145,1193.0801C505.04327,1191.1017,503.0746,1188.5638,501.92865,1186.5968C500.78284,1184.6298,500.45984,1183.2335,500.13678,1181.8372C500.7605,1183.3358,501.3844,1184.8344,502.73956,1186.6906C504.09473,1188.5468,506.18152,1190.7614,508.37622,1192.9847C510.57092,1195.2081,512.87366,1197.4401,514.42456,1198.8043C515.9755,1200.1687,516.7747,1200.6649,517.5739,1201.1611 Z"/>
</g>
<g style="fill:rgb(10,33,106); fill-opacity:1.0; stroke-linejoin: miter">
<path d="M518.0458,1201.0038L518.0458,1201.0048C518.0017,1201.0681,517.95776,1201.1324,517.82794,1201.1552C517.7859,1201.1625,517.7349,1201.1654,517.67786,1201.1654C517.5586,1201.1654,517.4127,1201.1526,517.26697,1201.1396L516.9723,1202.2002L517.23425,1202.892L517.3517,1204.628L517.57227,1205.1028L518.2396,1202.4028L518.7671,1201.7251L517.8141,1201.6726 Z"/>
</g>
<g style="fill:rgb(10,33,106); fill-opacity:1.0; stroke-linejoin: miter">
<path d="M518.71216,1182.3628L518.71216,1182.3638 Z"/>
</g>
<g style="fill:rgb(10,33,106); fill-opacity:1.0; stroke-linejoin: miter">
<path d="M517.15857,1183.0012L517.15857,1183.0022L517.52905,1183.3768C517.52203,1183.4087,517.5149,1183.4407,517.5609,1183.4407C517.5635,1183.4407,517.5661,1183.4407,517.569,1183.4404C517.6237,1183.4366,517.74084,1183.3954,517.85803,1183.3541L518.16003,1183.0884L518.1007,1181.9058L517.57056,1181.8207L517.2279,1181.9943 Z"/>
</g>
<g style="fill:rgb(10,33,106); fill-opacity:1.0; stroke-linejoin: miter">
<path d="M517.6846,1184.5947L517.6846,1184.5957L517.6065,1184.5806L517.5437,1184.5801L517.5143,1184.5894L517.4761,1184.6204L517.4728,1184.6703L517.4511,1184.766L517.4728,1184.7997L517.24255,1186.0637L517.3296,1186.3026L517.1809,1187.9088L517.407,1188.1837L517.0596,1190.4363L517.18085,1190.8019L517.28735,1192.673L517.26025,1193.51L517.56335,1193.8408L517.94666,1193.397L518.18286,1192.261 Z"/>
</g>
<g style="fill:rgb(10,33,106); fill-opacity:1.0; stroke-linejoin: miter">
</g>
</g>
</g>
<g id="layer2">
</g>
</svg>